<?xml version="1.0" encoding="UTF-8"?>
<!-- Generated by Pixelmator Pro 3.5.2 -->
<svg width="234" height="46" viewBox="0 0 234 46" xmlns="http://www.w3.org/2000/svg">
    <path id="InterWeb-copy" fill="#ffffff" fill-rule="evenodd" stroke="none" d="M 204.02002 36.779999 C 204.02002 39.779999 203.899902 43.019989 203.780029 45 L 210.080078 45 L 210.439941 40.619995 L 210.560059 40.619995 C 212.659912 44.220001 216.02002 45.660004 219.800049 45.660004 C 226.399902 45.660004 233.060059 40.440002 233.060059 29.940002 C 233.120117 21.059998 228.02002 15.119995 220.879883 15.119995 C 216.5 15.119995 213.320068 16.980011 211.52002 19.799988 L 211.399902 19.799988 L 211.399902 2.399994 L 204.02002 2.399994 Z M 211.399902 28.200012 C 211.399902 27.480011 211.52002 26.820007 211.639893 26.279999 C 212.419922 23.040009 215.179932 20.880005 218.179932 20.880005 C 223.100098 20.880005 225.560059 25.079987 225.560059 30.23999 C 225.560059 36.179993 222.73999 39.839996 218.120117 39.839996 C 214.939941 39.839996 212.360107 37.679993 211.580078 34.679993 C 211.459961 34.140015 211.399902 33.540009 211.399902 32.940002 Z M 197.840088 32.459991 C 197.959961 31.799988 198.080078 30.720001 198.080078 29.339996 C 198.080078 22.920013 194.959961 15.119995 185.47998 15.119995 C 176.120117 15.119995 171.199951 22.73999 171.199951 30.839996 C 171.199951 39.779999 176.780029 45.600006 186.26001 45.600006 C 190.459961 45.600006 193.939941 44.820007 196.459961 43.73999 L 195.379883 38.700012 C 193.100098 39.480011 190.699951 40.019989 187.280029 40.019989 C 182.540039 40.019989 178.459961 37.73999 178.280029 32.459991 Z M 178.280029 27.299988 C 178.580078 24.299988 180.5 20.160004 185.060059 20.160004 C 189.97998 20.160004 191.179932 24.600006 191.120117 27.299988 Z M 138.02002 45 L 142.699951 25.980011 C 143.899902 21.359985 144.679932 17.459991 145.340088 13.140015 L 145.459961 13.140015 C 146 17.519989 146.719971 21.359985 147.73999 25.980011 L 151.939941 45 L 159.800049 45 L 170.719971 4.559998 L 163.219971 4.559998 L 159.02002 22.799988 C 157.939941 27.779999 156.97998 32.399994 156.26001 36.839996 L 156.139893 36.839996 C 155.540039 32.459991 154.639893 27.959991 153.679932 23.160004 L 149.659912 4.559998 L 141.919922 4.559998 L 137.540039 22.859985 C 136.399902 27.959991 135.26001 32.76001 134.600098 37.019989 L 134.47998 37.019989 C 133.820068 33 132.860107 27.839996 131.840088 22.920013 L 128 4.559998 L 120.139893 4.559998 L 130.040039 45 Z M 101.840088 45 L 109.219971 45 L 109.219971 29.820007 C 109.219971 29.040009 109.280029 28.26001 109.399902 27.600006 C 110.060059 24.23999 112.52002 22.019989 116 22.019989 C 116.899902 22.019989 117.560059 22.079987 118.219971 22.200012 L 118.219971 15.299988 C 117.620117 15.179993 117.199951 15.119995 116.47998 15.119995 C 113.300049 15.119995 109.879883 17.220001 108.439941 21.299988 L 108.26001 21.299988 L 107.959961 15.779999 L 101.600098 15.779999 C 101.780029 18.359985 101.840088 21.23999 101.840088 25.200012 Z M 95.659912 32.459991 C 95.780029 31.799988 95.899902 30.720001 95.899902 29.339996 C 95.899902 22.920013 92.780029 15.119995 83.300049 15.119995 C 73.939941 15.119995 69.02002 22.73999 69.02002 30.839996 C 69.02002 39.779999 74.600098 45.600006 84.080078 45.600006 C 88.280029 45.600006 91.76001 44.820007 94.280029 43.73999 L 93.199951 38.700012 C 90.919922 39.480011 88.52002 40.019989 85.100098 40.019989 C 80.360107 40.019989 76.280029 37.73999 76.100098 32.459991 Z M 76.100098 27.299988 C 76.399902 24.299988 78.320068 20.160004 82.879883 20.160004 C 87.800049 20.160004 89 24.600006 88.939941 27.299988 Z M 51.379883 10.320007 L 51.379883 15.779999 L 47.23999 15.779999 L 47.23999 21.299988 L 51.379883 21.299988 L 51.379883 35.040009 C 51.379883 38.880005 52.100098 41.579987 53.719971 43.26001 C 55.100098 44.76001 57.320068 45.660004 60.080078 45.660004 C 62.360107 45.660004 64.340088 45.299988 65.419922 44.880005 L 65.300049 39.299988 C 64.459961 39.540009 63.73999 39.600006 62.419922 39.600006 C 59.600098 39.600006 58.639893 37.799988 58.639893 34.200012 L 58.639893 21.299988 L 65.659912 21.299988 L 65.659912 15.779999 L 58.639893 15.779999 L 58.639893 8.279999 Z M 16.159912 45 L 23.540039 45 L 23.540039 27.779999 C 23.540039 26.940002 23.659912 26.040009 23.899902 25.440002 C 24.679932 23.220001 26.719971 21.119995 29.659912 21.119995 C 33.679932 21.119995 35.23999 24.299988 35.23999 28.5 L 35.23999 45 L 42.620117 45 L 42.620117 27.660004 C 42.620117 18.420013 37.340088 15.119995 32.23999 15.119995 C 27.379883 15.119995 24.199951 17.880005 22.879883 20.160004 L 22.699951 20.160004 L 22.340088 15.779999 L 15.919922 15.779999 C 16.040039 18.299988 16.159912 21.119995 16.159912 24.480011 Z M 0.26001 4.559998 L 0.26001 45 L 7.639893 45 L 7.639893 4.559998 Z"/>
</svg>
